<?xml version='1.0' encoding='utf-8'?>
<svg xmlns="http://www.w3.org/2000/svg" width="350" height="220" viewBox="396 1080 350 220" fill="none"><title>Designer 02</title><defs><linearGradient id="paint125_linear_7_287" x1="396" y1="1300" x2="746" y2="1080" gradientUnits="userSpaceOnUse">
<stop stop-color="#FF5858" />
<stop offset="0.492708" stop-color="#FF6B6B" />
<stop offset="1" stop-color="#FF7D7D" />
</linearGradient>
<linearGradient id="paint124_linear_7_287" x1="396" y1="1300" x2="746" y2="1080" gradientUnits="userSpaceOnUse">
<stop stop-color="#FF5858" />
<stop offset="0.492708" stop-color="#FF6B6B" />
<stop offset="1" stop-color="#FF7D7D" />
</linearGradient>
<linearGradient id="paint123_linear_7_287" x1="396" y1="1300" x2="746" y2="1080" gradientUnits="userSpaceOnUse">
<stop stop-color="#FF5858" />
<stop offset="0.492708" stop-color="#FF6B6B" />
<stop offset="1" stop-color="#FF7D7D" />
</linearGradient>
<linearGradient id="paint122_linear_7_287" x1="396" y1="1300" x2="746" y2="1080" gradientUnits="userSpaceOnUse">
<stop stop-color="#280537" />
<stop offset="0.185417" stop-color="#56034C" />
<stop offset="0.419792" stop-color="#890058" />
<stop offset="0.669792" stop-color="#BC005B" />
<stop offset="1" stop-color="#EB1254" />
</linearGradient>
<linearGradient id="paint121_linear_7_287" x1="396" y1="1300" x2="746" y2="1080" gradientUnits="userSpaceOnUse">
<stop stop-color="#FF5858" />
<stop offset="0.492708" stop-color="#FF6B6B" />
<stop offset="1" stop-color="#FF7D7D" />
</linearGradient>
</defs><rect x="396" y="1080" width="350" height="220" rx="12" fill="url(#paint121_linear_7_287)" />
<mask id="mask55_7_287" style="mask-type:alpha" maskUnits="userSpaceOnUse" x="396" y="1080" width="350" height="220">
<rect x="396" y="1080" width="350" height="220" rx="12" fill="url(#paint122_linear_7_287)" />
</mask>
<mask id="mask56_7_287" style="mask-type:alpha" maskUnits="userSpaceOnUse" x="396" y="1080" width="350" height="220">
<rect x="396" y="1080" width="350" height="220" rx="12" fill="url(#paint123_linear_7_287)" />
</mask>
<mask id="mask57_7_287" style="mask-type:alpha" maskUnits="userSpaceOnUse" x="396" y="1080" width="350" height="220">
<rect x="396" y="1080" width="350" height="220" rx="12" fill="url(#paint124_linear_7_287)" />
</mask>
<mask id="mask58_7_287" style="mask-type:alpha" maskUnits="userSpaceOnUse" x="396" y="1080" width="350" height="220">
<rect x="396" y="1080" width="350" height="220" rx="12" fill="url(#paint125_linear_7_287)" />
</mask>
</svg>